# AST/ASF file generated using VICON BodyLanguage
# -----------------------------------------------
:version 1.10
:name VICON
:units
  mass 1.0
  length 0.45
  angle deg
:documentation
   .ast/.asf automatically generated from VICON data using
   VICON BodyBuilder and BodyLanguage model FoxedUp or BRILLIANT.MOD
:root
   order TX TY TZ RX RY RZ
   axis XYZ
   position 0 0 0  
   orientation 0 -0 0 
:bonedata
  begin
     id 1 
     name lhipjoint
     direction 0.500677 -0.737119 0.453848 
     length 2.34727 
     axis 0 -0 0  XYZ
  end
  begin
     id 2 
     name lfemur
     direction 0.34202 -0.939693 0  
     length 7.53653  
     axis 0 -0 20  XYZ
    dof rx ry rz
    limits (-160.0 20.0)
           (-70.0 70.0)
           (-60.0 70.0)
  end
  begin
     id 3 
     name ltibia
     direction 0.34202 -0.939693 0   
     length 6.85572   
     axis 0 -0 20   XYZ
    dof rx
    limits (-10.0 170.0)
  end
  begin
     id 4 
     name lfoot
     direction 0.155313 -0.426718 0.890949   
     length 2.18324   
     axis -90 -1.13533e-015 20   XYZ
    dof rx rz
    limits (-45.0 90.0)
           (-70.0 20.0)
  end
  begin
     id 5 
     name ltoes
     direction 1.53474e-011 -4.21647e-011 1   
     length 1.06748   
     axis -90 -1.13533e-015 20   XYZ
    dof rx
    limits (-90.0 20.0)
  end
  begin
     id 6 
     name rhipjoint
     direction -0.632471 -0.659587 0.406111   
     length 2.62319  
     axis 0 -0 0  XYZ 
  end
  begin
     id 7 
     name rfemur
     direction -0.34202 -0.939693 0   
     length 7.21735   
     axis 0 -0 -20   XYZ
    dof rx ry rz
    limits (-160.0 20.0)
           (-70.0 70.0)
           (-70.0 60.0)
  end
  begin
     id 8 
     name rtibia
     direction -0.34202 -0.939693 0   
     length 7.02558   
     axis 0 -0 -20   XYZ
    dof rx
    limits (-10.0 170.0)
 end
 begin
     id 9 
     name rfoot
     direction -0.16057 -0.441164 0.882945   
     length 2.10014  
     axis -90 1.13533e-015 -20   XYZ
    dof rx rz
    limits (-45.0 90.0)
           (-20.0 70.0)
  end
  begin
     id 10 
     name rtoes
     direction -1.53553e-011 -4.2192e-011 1   
     length 1.02554   
     axis -90 1.13533e-015 -20   XYZ
    dof rx
    limits (-90.0 20.0)
  end
  begin
     id 11 
     name lowerback
     direction 0.0401429 0.998861 -0.0258085   
     length 1.80848   
     axis 0 -0 0   XYZ
    dof rx ry rz
    limits (-20.0 45.0)
           (-30.0 30.0)
           (-30.0 30.0)
  end
  begin
     id 12 
     name upperback
     direction -0.0130978 0.999914 -0.000352645   
     length 1.8116   
     axis 0 -0 0   XYZ
    dof rx ry rz
    limits (-20.0 45.0)
           (-30.0 30.0)
           (-30.0 30.0)
  end
  begin
     id 13 
     name thorax
     direction -0.0300198 0.999453 0.0138573   
     length 1.81778   
     axis 0 -0 0   XYZ
    dof rx ry rz
    limits (-20.0 45.0)
           (-30.0 30.0)
           (-30.0 30.0)
  end
  begin
     id 14 
     name lowerneck
     direction -0.0401726 0.999191 -0.00173647   
     length 2.10594   
     axis 0 -0 0   XYZ
    dof rx ry rz
    limits (-20.0 45.0)
           (-30.0 30.0)
           (-30.0 30.0)
  end
  begin
     id 15 
     name upperneck
     direction 0.0119835 0.998501 0.0534085   
     length 2.07325   
     axis 0 -0 0   XYZ
    dof rx ry rz
    limits (-20.0 45.0)
           (-30.0 30.0)
           (-30.0 30.0)
  end
  begin
     id 16
     name head
     direction 0.00628309 0.999826 0.0175921  
     length 2.15096  
     axis 0 -0 0   XYZ
    dof rx ry rz
    limits (-20.0 45.0)
           (-30.0 30.0)
           (-30.0 30.0)
  end
  begin
     id 17 
     name lclavicle
     direction 0.895501 0.429681 -0.115981  
     length 4.18092  
     axis 0 -0 0   XYZ
    dof ry rz
    limits (-20.0 10.0)
           (0.0 20.0)
  end
  begin
     id 18 
     name lhumerus
     direction 1 -4.48961e-011 -3.38433e-028   
     length 5.77237   
     axis 180 -30 -90   XYZ
    dof rx ry rz
    limits (-60.0 90.0)
           (-90.0 90.0)
           (-90.0 90.0)
  end
  begin
     id 19
     name lradius
     direction 1 -4.4901e-011 1.11983e-026   
     length 2.91878   
     axis 180 -30 -90   XYZ
    dof rx
    limits (-10.0 170.0)
  end
  begin
     id 20
     name lwrist
     direction 1 -4.48934e-011 1.88176e-026   
     length 1.45939   
     axis -1.23311e-014 90 90   XYZ
    dof ry
    limits (-180.0 0.0)
 end
  begin
     id 21 
     name lhand
     direction 1 -4.4895e-011 3.76352e-026   
     length 1.06566   
     axis -2.40147e-014 90 90   XYZ
    dof rx rz
    limits (-90.0 90.0)
           (-45.0 45.0)
  end
  begin
     id 22 
     name lfingers
     direction 1 -4.49005e-011 7.52705e-026   
     length 0.859162   
     axis -4.80295e-014 90 90   XYZ
    dof rx
    limits (0.0 90.0)
  end
  begin
     id 23
     name lthumb
     direction 0.707107 -6.34885e-011 0.707107   
     length 1.23359   
     axis -90 45 -9.86935e-015   XYZ
    dof rx rz
    limits (-45.0 45.0)
           (-45.0 45.0)
  end
  begin
     id 24 
     name rclavicle
     direction -0.91006 0.40451 -0.0903492   
     length 4.23293  
     axis 0 -0 0   XYZ 
    dof ry rz
    limits (-10.0 20.0)
           (-20.0 0.0)
  end
  begin
     id 25 
     name rhumerus
     direction -1 -4.4897e-011 1.7415e-027  
     length 5.49854   
     axis 180 30 90   XYZ
    dof rx ry rz
    limits (-90.0 60.0)
           (-90.0 90.0)
           (-90.0 90.0)
  end
  begin
     id 26 
     name rradius
     direction -1 -4.48963e-011 1.21259e-026   
     length 3.1186   
     axis 180 30 90   XYZ
    dof rx
    limits (-10.0 170.0)
  end
  begin
     id 27 
     name rwrist
     direction -1 -4.48967e-011 1.88176e-026   
     length 1.5593   
     axis -1.23311e-014 -90 -90   XYZ
    dof ry
    limits (-180.0 0.0)
  end
  begin
     id 28
     name rhand
     direction -1 -4.4895e-011 3.76352e-026   
     length 0.71207   
     axis -2.40147e-014 -90 -90   XYZ
    dof rx rz
    limits (-90.0 90.0)
           (-45.0 45.0)
  end
  begin
     id 29
     name rfingers
     direction -1 -4.49005e-011 7.52705e-026   
     length 0.574089   
     axis -4.80295e-014 -90 -90   XYZ
    dof rx
    limits (0.0 90.0)
  end
  begin
     id 30
     name rthumb
     direction -0.707107 -6.34982e-011 0.707107   
     length 0.824281   
     axis -90 -45 9.86935e-015   XYZ
    dof rx rz
    limits (-45.0 45.0)
           (-45.0 45.0)
  end
:hierarchy
  begin
    root lhipjoint rhipjoint lowerback
    lhipjoint lfemur
    lfemur ltibia
    ltibia lfoot
    lfoot ltoes
    rhipjoint rfemur
    rfemur rtibia
    rtibia rfoot
    rfoot rtoes
    lowerback upperback
    upperback thorax
    thorax lowerneck lclavicle rclavicle
    lowerneck upperneck
    upperneck head
    lclavicle lhumerus
    lhumerus lradius
    lradius lwrist
    lwrist lhand lthumb
    lhand lfingers
    rclavicle rhumerus
    rhumerus rradius
    rradius rwrist
    rwrist rhand rthumb
    rhand rfingers
  end

#!OML:ASF C:\ViconDB\ViconDB\414\Spring2016\042216\male.ASF
:FULLY-SPECIFIED
:DEGREES
514
root 13.6692 17.4129 10.4333 495.295 79.1733 853.34
lowerback -2.39143 -4.02554 2.11164
upperback -0.898064 -5.4018 1.47289
thorax 0.362148 -2.69275 0.190891
lowerneck -0.380879 13.8433 0.879138
upperneck -5.31264 18.435 -4.05241
head -1.11923 9.28865 -1.47502
rclavicle 7.42212e-014 -2.8625e-014
rhumerus -44.2234 -26.3339 -65.1856
rradius 23.2862
rwrist 50.0167
rhand 14.4832 -23.1294
rfingers 7.12502
rthumb 39.365 -48.5439
lclavicle 7.42212e-014 -2.8625e-014
lhumerus -28.6498 -6.56864 102.094
lradius 38.1327
lwrist -8.30474
lhand -8.39935 15.083
lfingers 7.12502
lthumb 17.5245 44.3131
rfemur -22.6224 13.6927 5.39544
rtibia 33.7848
rfoot -14.5801 -8.03701
rtoes -14.9147
lfemur 12.7844 -8.73418 -26.9225
ltibia 23.5902
lfoot 0.406985 2.77541
ltoes -32.0058
515
root 13.7866 17.4448 10.4762 500.117 78.7197 858.078
lowerback -2.38224 -4.04156 2.62448
upperback -0.970887 -5.42814 1.5697
thorax 0.24355 -2.70609 0.0120604
lowerneck -0.46587 13.7144 0.845518
upperneck -5.38493 18.2703 -3.81837
head -1.15743 9.20302 -1.40226
rclavicle 3.82164e-014 1.27222e-014
rhumerus -43.913 -25.7181 -66.2509
rradius 23.9303
rwrist 48.1761
rhand 14.2002 -23.1704
rfingers 7.12502
rthumb 39.0983 -48.6622
lclavicle 3.82164e-014 1.27222e-014
lhumerus -28.8805 -7.67527 102.327
lradius 38.0727
lwrist -8.13241
lhand -7.68733 14.9268
lfingers 7.12502
lthumb 18.2097 44.0945
rfemur -21.6367 15.0032 5.94865
rtibia 33.217
rfoot -15.1725 -10.1654
rtoes -14.7473
lfemur 10.9491 -8.76026 -26.1541
ltibia 27.1391
lfoot 0.984632 3.00843
ltoes -29.8869
516
root 13.9072 17.477 10.5156 504.403 78.1338 862.362
lowerback -2.43074 -4.05796 2.99442
upperback -0.980398 -5.45592 1.70614
thorax 0.238871 -2.71854 -0.0556833
lowerneck -0.543221 13.5365 0.853642
upperneck -5.50025 18.0365 -3.7565
head -1.1916 9.08646 -1.38689
rclavicle -1.71203e-014 -6.04305e-014
rhumerus -43.3919 -24.3764 -67.7779
rradius 24.5668
rwrist 45.2787
rhand 13.5819 -23.0787
rfingers 7.12502
rthumb 38.5152 -48.7359
lclavicle -1.71203e-014 -6.04305e-014
lhumerus -28.9922 -8.56295 102.584
lradius 37.9221
lwrist -8.60415
lhand -6.80803 14.6138
lfingers 7.12502
lthumb 19.0554 43.7004
rfemur -20.4742 15.6047 6.55625
rtibia 32.4951
rfoot -15.6359 -11.6485
rtoes -14.5681
lfemur 9.33413 -8.79551 -25.4816
ltibia 30.4219
lfoot 1.44401 3.47482
ltoes -26.659
517
root 14.0213 17.5113 10.5482 508.397 77.5764 866.365
lowerback -2.38988 -3.97471 3.70419
upperback -1.02544 -5.35202 1.72912
thorax 0.108768 -2.66817 -0.413241
lowerneck -0.572653 13.2711 0.776547
upperneck -5.60379 17.6859 -3.65247
head -1.2436 8.91219 -1.35191
rclavicle -4.049e-014 -6.36111e-015
rhumerus -43.0331 -23.7595 -68.9014
rradius 25.2369
rwrist 43.3196
rhand 13.4524 -22.6098
rfingers 7.12502
rthumb 38.3929 -48.3011
lclavicle -4.049e-014 -6.36111e-015
lhumerus -28.9866 -8.8804 102.511
lradius 37.5463
lwrist -10.6135
lhand -5.28184 13.6047
lfingers 7.12502
lthumb 20.5226 42.54
rfemur -19.3151 15.5894 7.28193
rtibia 31.6623
rfoot -15.9754 -12.4215
rtoes -14.2613
lfemur 7.81336 -8.86802 -24.8541
ltibia 33.4352
lfoot 1.74665 4.78247
ltoes -23.9036
518
root 14.1355 17.5468 10.5879 511.946 76.9653 869.938
lowerback -2.27717 -3.95734 4.12393
upperback -1.16961 -5.32121 1.76839
thorax -0.136302 -2.65753 -0.58664
lowerneck -0.182309 13.1105 1.17401
upperneck -5.79968 17.4665 -3.83299
head -1.32525 8.80134 -1.49951
rclavicle 2.71527e-014 2.54444e-014
rhumerus -42.7142 -22.4636 -70.4083
rradius 25.9797
rwrist 40.6001
rhand 12.7615 -22.3027
rfingers 7.12502
rthumb 37.7405 -48.1721
lclavicle 2.71527e-014 2.54444e-014
lhumerus -29.2912 -9.54843 102.626
lradius 37.4653
lwrist -10.3224
lhand -5.2076 13.6653
lfingers 7.12502
lthumb 20.5939 42.5929
rfemur -18.1743 15.0084 8.0434
rtibia 30.7767
rfoot -16.1431 -12.6915
rtoes -13.989
lfemur 6.35099 -8.79373 -24.1893
ltibia 36.1833
lfoot 1.50287 6.17248
ltoes -20.5781
